<?xml version="1.0" encoding="UTF-8" standalone="no"?>
<!DOCTYPE svg PUBLIC "-//W3C//DTD SVG 1.1//EN"
 "http://www.w3.org/Graphics/SVG/1.1/DTD/svg11.dtd">
<!-- Generated by graphviz version 2.47.3 (20210619.1520)
 -->
<!-- Title: dependencies Pages: 1 -->
<svg width="749pt" height="247pt"
 viewBox="0.00 0.00 749.00 246.80" xmlns="http://www.w3.org/2000/svg" xmlns:xlink="http://www.w3.org/1999/xlink">
<g id="graph0" class="graph" transform="scale(1 1) rotate(0) translate(4 242.8)">
<title>dependencies</title>
<polygon fill="white" stroke="transparent" points="-4,4 -4,-242.8 745,-242.8 745,4 -4,4"/>
<text text-anchor="middle" x="370.5" y="-8.2" font-family="sans-serif" font-size="14.00">dependencies</text>
<g id="clust1" class="cluster">
<title>cluster_AppModule</title>
<polygon fill="none" stroke="black" stroke-dasharray="1,5" points="8,-32.8 8,-230.8 733,-230.8 733,-32.8 8,-32.8"/>
</g>
<g id="clust2" class="cluster">
<title>cluster_AppModule_declarations</title>
<polygon fill="none" stroke="black" points="168,-40.8 168,-92.8 725,-92.8 725,-40.8 168,-40.8"/>
</g>
<g id="clust7" class="cluster">
<title>cluster_AppModule_imports</title>
<polygon fill="none" stroke="black" points="16,-40.8 16,-92.8 160,-92.8 160,-40.8 16,-40.8"/>
</g>
<g id="clust9" class="cluster">
<title>cluster_AppModule_bootstrap</title>
<polygon fill="none" stroke="black" points="307,-170.8 307,-222.8 431,-222.8 431,-170.8 307,-170.8"/>
</g>
<!-- AppComponent -->
<g id="node1" class="node">
<title>AppComponent</title>
<polygon fill="#ffffb3" stroke="black" points="716.94,-84.8 611.06,-84.8 611.06,-48.8 716.94,-48.8 716.94,-84.8"/>
<text text-anchor="middle" x="664" y="-62.6" font-family="Times,serif" font-size="14.00">AppComponent</text>
</g>
<!-- AppModule -->
<g id="node5" class="node">
<title>AppModule</title>
<polygon fill="#8dd3c7" stroke="black" points="410.66,-149.8 407.66,-153.8 386.66,-153.8 383.66,-149.8 327.34,-149.8 327.34,-113.8 410.66,-113.8 410.66,-149.8"/>
<text text-anchor="middle" x="369" y="-127.6" font-family="Times,serif" font-size="14.00">AppModule</text>
</g>
<!-- AppComponent&#45;&gt;AppModule -->
<g id="edge1" class="edge">
<title>AppComponent&#45;&gt;AppModule</title>
<path fill="none" stroke="black" d="M664,-85.08C664,-106.12 664,-137.8 664,-137.8 664,-137.8 420.95,-137.8 420.95,-137.8"/>
<polygon fill="black" stroke="black" points="420.95,-134.3 410.95,-137.8 420.95,-141.3 420.95,-134.3"/>
</g>
<!-- NuevaTareaComponent -->
<g id="node2" class="node">
<title>NuevaTareaComponent</title>
<polygon fill="#ffffb3" stroke="black" points="592.73,-84.8 443.27,-84.8 443.27,-48.8 592.73,-48.8 592.73,-84.8"/>
<text text-anchor="middle" x="518" y="-62.6" font-family="Times,serif" font-size="14.00">NuevaTareaComponent</text>
</g>
<!-- NuevaTareaComponent&#45;&gt;AppModule -->
<g id="edge2" class="edge">
<title>NuevaTareaComponent&#45;&gt;AppModule</title>
<path fill="none" stroke="black" d="M518,-84.82C518,-102.17 518,-125.8 518,-125.8 518,-125.8 420.9,-125.8 420.9,-125.8"/>
<polygon fill="black" stroke="black" points="420.9,-122.3 410.9,-125.8 420.9,-129.3 420.9,-122.3"/>
</g>
<!-- TareaComponent -->
<g id="node3" class="node">
<title>TareaComponent</title>
<polygon fill="#ffffb3" stroke="black" points="425.69,-84.8 312.31,-84.8 312.31,-48.8 425.69,-48.8 425.69,-84.8"/>
<text text-anchor="middle" x="369" y="-62.6" font-family="Times,serif" font-size="14.00">TareaComponent</text>
</g>
<!-- TareaComponent&#45;&gt;AppModule -->
<g id="edge3" class="edge">
<title>TareaComponent&#45;&gt;AppModule</title>
<path fill="none" stroke="black" d="M369,-84.91C369,-84.91 369,-103.79 369,-103.79"/>
<polygon fill="black" stroke="black" points="365.5,-103.79 369,-113.79 372.5,-103.79 365.5,-103.79"/>
</g>
<!-- TareasComponent -->
<g id="node4" class="node">
<title>TareasComponent</title>
<polygon fill="#ffffb3" stroke="black" points="294.13,-84.8 175.87,-84.8 175.87,-48.8 294.13,-48.8 294.13,-84.8"/>
<text text-anchor="middle" x="235" y="-62.6" font-family="Times,serif" font-size="14.00">TareasComponent</text>
</g>
<!-- TareasComponent&#45;&gt;AppModule -->
<g id="edge4" class="edge">
<title>TareasComponent&#45;&gt;AppModule</title>
<path fill="none" stroke="black" d="M235,-84.82C235,-102.17 235,-125.8 235,-125.8 235,-125.8 317.34,-125.8 317.34,-125.8"/>
<polygon fill="black" stroke="black" points="317.34,-129.3 327.34,-125.8 317.34,-122.3 317.34,-129.3"/>
</g>
<!-- AppComponent  -->
<g id="node7" class="node">
<title>AppComponent </title>
<polygon fill="#80b1d3" stroke="black" points="423.44,-214.8 314.56,-214.8 314.56,-178.8 423.44,-178.8 423.44,-214.8"/>
<text text-anchor="middle" x="369" y="-192.6" font-family="Times,serif" font-size="14.00">AppComponent </text>
</g>
<!-- AppModule&#45;&gt;AppComponent  -->
<g id="edge6" class="edge">
<title>AppModule&#45;&gt;AppComponent </title>
<path fill="none" stroke="black" stroke-dasharray="1,5" d="M369,-149.91C369,-149.91 369,-168.79 369,-168.79"/>
<polygon fill="black" stroke="black" points="365.5,-168.79 369,-178.79 372.5,-168.79 365.5,-168.79"/>
</g>
<!-- AppRoutingModule -->
<g id="node6" class="node">
<title>AppRoutingModule</title>
<polygon fill="#8dd3c7" stroke="black" points="152.27,-84.8 149.27,-88.8 128.27,-88.8 125.27,-84.8 23.73,-84.8 23.73,-48.8 152.27,-48.8 152.27,-84.8"/>
<text text-anchor="middle" x="88" y="-62.6" font-family="Times,serif" font-size="14.00">AppRoutingModule</text>
</g>
<!-- AppRoutingModule&#45;&gt;AppModule -->
<g id="edge5" class="edge">
<title>AppRoutingModule&#45;&gt;AppModule</title>
<path fill="none" stroke="black" d="M88,-85.08C88,-106.12 88,-137.8 88,-137.8 88,-137.8 317.23,-137.8 317.23,-137.8"/>
<polygon fill="black" stroke="black" points="317.23,-141.3 327.23,-137.8 317.23,-134.3 317.23,-141.3"/>
</g>
</g>
</svg>
