<?xml version="1.0" encoding="UTF-8" standalone="no"?>
<!DOCTYPE svg PUBLIC "-//W3C//DTD SVG 1.1//EN"
 "http://www.w3.org/Graphics/SVG/1.1/DTD/svg11.dtd">
<!-- Generated by graphviz version 2.47.3 (20210619.1520)
 -->
<!-- Title: dependencies Pages: 1 -->
<svg width="749pt" height="247pt"
 viewBox="0.00 0.00 749.00 246.80" xmlns="http://www.w3.org/2000/svg" xmlns:xlink="http://www.w3.org/1999/xlink">
<g id="graph0" class="graph" transform="scale(1 1) rotate(0) translate(4 242.8)">
<title>dependencies</title>
<polygon fill="white" stroke="transparent" points="-4,4 -4,-242.8 745,-242.8 745,4 -4,4"/>
<text text-anchor="middle" x="370.5" y="-8.2" font-family="sans-serif" font-size="14.00">dependencies</text>
<g id="clust1" class="cluster">
<title>cluster_AppModule</title>
<polygon fill="none" stroke="black" stroke-dasharray="1,5" points="8,-32.8 8,-230.8 733,-230.8 733,-32.8 8,-32.8"/>
</g>
<g id="clust7" class="cluster">
<title>cluster_AppModule_imports</title>
<polygon fill="none" stroke="black" points="581,-40.8 581,-92.8 725,-92.8 725,-40.8 581,-40.8"/>
</g>
<g id="clust9" class="cluster">
<title>cluster_AppModule_bootstrap</title>
<polygon fill="none" stroke="black" points="304,-170.8 304,-222.8 428,-222.8 428,-170.8 304,-170.8"/>
</g>
<g id="clust2" class="cluster">
<title>cluster_AppModule_declarations</title>
<polygon fill="none" stroke="black" points="16,-40.8 16,-92.8 573,-92.8 573,-40.8 16,-40.8"/>
</g>
<!-- AppComponent -->
<g id="node1" class="node">
<title>AppComponent</title>
<polygon fill="#ffffb3" stroke="black" points="564.94,-84.8 459.06,-84.8 459.06,-48.8 564.94,-48.8 564.94,-84.8"/>
<text text-anchor="middle" x="512" y="-62.6" font-family="Times,serif" font-size="14.00">AppComponent</text>
</g>
<!-- AppModule -->
<g id="node5" class="node">
<title>AppModule</title>
<polygon fill="#8dd3c7" stroke="black" points="407.66,-149.8 404.66,-153.8 383.66,-153.8 380.66,-149.8 324.34,-149.8 324.34,-113.8 407.66,-113.8 407.66,-149.8"/>
<text text-anchor="middle" x="366" y="-127.6" font-family="Times,serif" font-size="14.00">AppModule</text>
</g>
<!-- AppComponent&#45;&gt;AppModule -->
<g id="edge1" class="edge">
<title>AppComponent&#45;&gt;AppModule</title>
<path fill="none" stroke="black" d="M512,-84.82C512,-102.17 512,-125.8 512,-125.8 512,-125.8 417.84,-125.8 417.84,-125.8"/>
<polygon fill="black" stroke="black" points="417.84,-122.3 407.84,-125.8 417.84,-129.3 417.84,-122.3"/>
</g>
<!-- NuevaTareaComponent -->
<g id="node2" class="node">
<title>NuevaTareaComponent</title>
<polygon fill="#ffffb3" stroke="black" points="440.73,-84.8 291.27,-84.8 291.27,-48.8 440.73,-48.8 440.73,-84.8"/>
<text text-anchor="middle" x="366" y="-62.6" font-family="Times,serif" font-size="14.00">NuevaTareaComponent</text>
</g>
<!-- NuevaTareaComponent&#45;&gt;AppModule -->
<g id="edge2" class="edge">
<title>NuevaTareaComponent&#45;&gt;AppModule</title>
<path fill="none" stroke="black" d="M366,-84.91C366,-84.91 366,-103.79 366,-103.79"/>
<polygon fill="black" stroke="black" points="362.5,-103.79 366,-113.79 369.5,-103.79 362.5,-103.79"/>
</g>
<!-- TareaComponent -->
<g id="node3" class="node">
<title>TareaComponent</title>
<polygon fill="#ffffb3" stroke="black" points="273.69,-84.8 160.31,-84.8 160.31,-48.8 273.69,-48.8 273.69,-84.8"/>
<text text-anchor="middle" x="217" y="-62.6" font-family="Times,serif" font-size="14.00">TareaComponent</text>
</g>
<!-- TareaComponent&#45;&gt;AppModule -->
<g id="edge3" class="edge">
<title>TareaComponent&#45;&gt;AppModule</title>
<path fill="none" stroke="black" d="M217,-84.82C217,-102.17 217,-125.8 217,-125.8 217,-125.8 314.1,-125.8 314.1,-125.8"/>
<polygon fill="black" stroke="black" points="314.1,-129.3 324.1,-125.8 314.1,-122.3 314.1,-129.3"/>
</g>
<!-- TareasComponent -->
<g id="node4" class="node">
<title>TareasComponent</title>
<polygon fill="#ffffb3" stroke="black" points="142.13,-84.8 23.87,-84.8 23.87,-48.8 142.13,-48.8 142.13,-84.8"/>
<text text-anchor="middle" x="83" y="-62.6" font-family="Times,serif" font-size="14.00">TareasComponent</text>
</g>
<!-- TareasComponent&#45;&gt;AppModule -->
<g id="edge4" class="edge">
<title>TareasComponent&#45;&gt;AppModule</title>
<path fill="none" stroke="black" d="M83,-85.08C83,-106.12 83,-137.8 83,-137.8 83,-137.8 314.24,-137.8 314.24,-137.8"/>
<polygon fill="black" stroke="black" points="314.24,-141.3 324.24,-137.8 314.24,-134.3 314.24,-141.3"/>
</g>
<!-- AppComponent  -->
<g id="node7" class="node">
<title>AppComponent </title>
<polygon fill="#80b1d3" stroke="black" points="420.44,-214.8 311.56,-214.8 311.56,-178.8 420.44,-178.8 420.44,-214.8"/>
<text text-anchor="middle" x="366" y="-192.6" font-family="Times,serif" font-size="14.00">AppComponent </text>
</g>
<!-- AppModule&#45;&gt;AppComponent  -->
<g id="edge6" class="edge">
<title>AppModule&#45;&gt;AppComponent </title>
<path fill="none" stroke="black" stroke-dasharray="1,5" d="M366,-149.91C366,-149.91 366,-168.79 366,-168.79"/>
<polygon fill="black" stroke="black" points="362.5,-168.79 366,-178.79 369.5,-168.79 362.5,-168.79"/>
</g>
<!-- AppRoutingModule -->
<g id="node6" class="node">
<title>AppRoutingModule</title>
<polygon fill="#8dd3c7" stroke="black" points="717.27,-84.8 714.27,-88.8 693.27,-88.8 690.27,-84.8 588.73,-84.8 588.73,-48.8 717.27,-48.8 717.27,-84.8"/>
<text text-anchor="middle" x="653" y="-62.6" font-family="Times,serif" font-size="14.00">AppRoutingModule</text>
</g>
<!-- AppRoutingModule&#45;&gt;AppModule -->
<g id="edge5" class="edge">
<title>AppRoutingModule&#45;&gt;AppModule</title>
<path fill="none" stroke="black" d="M653,-85.08C653,-106.12 653,-137.8 653,-137.8 653,-137.8 417.73,-137.8 417.73,-137.8"/>
<polygon fill="black" stroke="black" points="417.73,-134.3 407.73,-137.8 417.73,-141.3 417.73,-134.3"/>
</g>
</g>
</svg>
